<svg t="1653039570306" class="icon" viewBox="0 0 1024 1024" version="1.1" xmlns="http://www.w3.org/2000/svg" p-id="8800" width="200" height="200"><path d="M217.6 185.6c6.4-6.4 19.2-19.2 32-25.6C256 153.6 268.8 147.2 281.6 147.2c-19.2-32-44.8-51.2-64-38.4C192 121.6 204.8 153.6 217.6 185.6M249.6 416C275.2 384 313.6 364.8 358.4 339.2c38.4-25.6 83.2-51.2 121.6-64L454.4 243.2c-38.4-64-128-89.6-192-51.2-64 38.4-83.2 128-38.4 192L249.6 416zM806.4 780.8c-19.2 12.8-38.4 19.2-57.6 32-51.2 25.6-102.4 57.6-147.2 89.6-19.2 12.8-38.4 25.6-51.2 38.4C537.6 947.2 512 966.4 480 960c-25.6-6.4-44.8-25.6-70.4-57.6l-192-313.6c-38.4-64-32-108.8 0-147.2L198.4 403.2c-38.4-57.6-38.4-134.4 0-192-25.6-38.4-51.2-108.8 0-140.8 57.6-32 102.4 19.2 128 64 64-6.4 128 25.6 166.4 89.6L512 262.4c51.2-6.4 96 6.4 134.4 70.4l192 313.6C889.6 723.2 844.8 761.6 806.4 780.8zM595.2 640l140.8-89.6L710.4 512 563.2 601.6 544 563.2l147.2-89.6-25.6-38.4L524.8 524.8 505.6 492.8l140.8-89.6L614.4 352C556.8 262.4 492.8 294.4 377.6 371.2 262.4 441.6 198.4 486.4 256 569.6l192 313.6c12.8 25.6 25.6 38.4 44.8 38.4 19.2 6.4 51.2-19.2 96-51.2 19.2-19.2 44.8-38.4 70.4-51.2 25.6-19.2 57.6-32 76.8-44.8 19.2-6.4 38.4-19.2 51.2-25.6 38.4-19.2 44.8-38.4 19.2-89.6l-51.2-76.8-140.8 89.6L595.2 640z" p-id="8801" fill="#e89abe"></path></svg>