<svg t="1652951695453" class="icon" viewBox="0 0 1025 1024" version="1.1" xmlns="http://www.w3.org/2000/svg" p-id="4785" width="200" height="200"><path d="M1022.776929 712.389701a37.075664 37.075664 0 0 0-45.598805-25.995581L403.57073 840.662974a110.374677 110.374677 0 0 0-94.180709-42.615706L161.93968 245.32157a87.788353 87.788353 0 0 0-42.615705-54.97426l-63.497401-37.501821a37.075664 37.075664 0 0 0-50.712689 13.210869 37.501821 37.501821 0 0 0 13.637025 51.138846L89.066824 256.82781l152.138068 572.75508a112.505462 112.505462 0 1 0 189.639889 81.822155l564.23194-152.990383a37.075664 37.075664 0 0 0 27.700208-46.024961z" p-id="4786" fill="#e98f36"></path><path d="M980.161224 568.774774L835.267826 28.833786A37.927978 37.927978 0 0 0 789.242864 1.133578L252.284976 146.87929a37.927978 37.927978 0 0 0-25.99558 46.024962l144.041084 539.940987a37.501821 37.501821 0 0 0 45.598805 26.421738l536.957887-144.893399a36.649507 36.649507 0 0 0 27.274052-45.598804z m-426.157054-213.078527l-162.365838 42.615705a25.143266 25.143266 0 0 1-30.683307-16.620125v-4.261571a25.569423 25.569423 0 0 1 18.324753-29.830993l162.365837-42.615706a24.717109 24.717109 0 0 1 30.683308 16.620125v3.835414a25.143266 25.143266 0 0 1-18.324753 28.552522z m37.927978-154.695011L355.84114 263.646323a25.569423 25.569423 0 0 1-31.109465-17.046282v-3.835414A25.143266 25.143266 0 0 1 340.925643 214.212105l235.664851-63.923558a25.569423 25.569423 0 0 1 31.109465 16.620125v4.26157a25.569423 25.569423 0 0 1-15.767811 28.126366z m316.208534 291.065268a22.160167 22.160167 0 0 1-16.193968 27.274051l-76.282113 20.881696 11.932398 42.615705a24.717109 24.717109 0 0 1-18.324754 30.257151 24.717109 24.717109 0 0 1-31.109465-16.193968l-11.50624-42.615705-79.265212 22.160166a21.73401 21.73401 0 1 1-11.506241-42.615705l78.839055-22.160167-6.818512-24.290952-78.839055 22.160167a22.586324 22.586324 0 0 1-28.126366-14.915497 22.586324 22.586324 0 0 1 16.193968-27.274051l60.088145-16.620125-93.754552-75.003642a21.307853 21.307853 0 0 1-7.24467-33.666407 23.864795 23.864795 0 0 1 31.535622-7.670827 16.193968 16.193968 0 0 1 5.113885 3.835413l101.851535 80.543684L801.175261 299.443515a23.864795 23.864795 0 0 1 31.109465-9.375455 20.455539 20.455539 0 0 1 11.506241 23.438638l-42.615706 112.505462 59.661988-16.620125a22.586324 22.586324 0 0 1 28.126365 14.915497 22.160167 22.160167 0 0 1-16.193968 27.274052l-76.282112 20.881695 6.818513 24.290952 76.708269-20.881695a21.73401 21.73401 0 0 1 27.274052 14.48934z" p-id="4787" fill="#e98f36"></path></svg>