<svg t="1652951803299" class="icon" viewBox="0 0 1055 1024" version="1.1" xmlns="http://www.w3.org/2000/svg" p-id="5818" width="32" height="32"><path d="M340.247273 570.274909V530.618182c0-9.153939 6.11297-15.266909 15.328969-15.266909h125.88994c9.216 0 15.36 6.11297 15.36 15.266909v39.718788c0 9.122909-6.144 15.235879-15.36 15.235878h-125.88994c-3.072 0-6.144-3.04097-9.216-3.040969-6.11297-6.11297-6.11297-9.18497-6.112969-12.22594z m138.146909-332.737939H352.504242c-3.072 0-6.144-3.04097-9.184969-3.04097-3.10303-3.04097-3.10303-6.11297-3.103031-9.153939V185.654303c0-9.153939 6.144-15.266909 15.36-15.266909h125.88994c9.216 0 15.36 6.11297 15.36 15.266909v39.687758c-3.10303 6.11297-9.216 12.194909-18.432 12.194909zM469.178182 982.419394v6.081939H42.418424c-18.40097 0-33.76097-15.266909-33.760969-36.615757V39.098182c0-18.307879 15.36-33.574788 33.760969-36.615758h540.361697c18.432 0 33.76097 15.235879 33.76097 36.615758v231.982545h340.805818c18.432 0 33.76097 15.266909 33.76097 33.605818v167.87394c-18.40097-27.461818-42.97697-48.841697-70.59394-67.149576v-48.841697c0-3.04097-3.10303-9.153939-6.144-12.225939-3.10303-3.04097-6.144-6.081939-12.288-6.08194h-270.180848c-9.216 0-15.36 6.081939-15.36 15.266909v48.810667h-3.072c-24.54497 0-49.12097 9.18497-67.521939 27.492849V84.929939c0-3.072-3.10303-9.18497-6.144-12.225939-3.10303-3.04097-6.144-6.11297-12.288-6.11297H88.467394c-3.072 0-9.216 3.072-12.25697 6.11297-3.10303 3.04097-6.144 6.11297-6.144 12.225939v808.92897c0 9.153939 6.144 15.266909 15.32897 15.266909h380.741818c3.04097 27.461818 3.04097 51.882667 3.04097 73.231515zM340.247273 396.25697v-42.728728c0-9.18497 6.11297-15.266909 15.328969-15.266909h125.88994c9.216 0 15.36 6.081939 15.36 15.266909v39.656728c0 9.18497-6.144 15.266909-15.36 15.266909h-125.88994c-3.072 0-6.144-3.04097-9.216-3.04097-6.11297 0-6.11297-6.11297-6.112969-9.153939z m0 347.973818v-42.728727c0-9.153939 6.11297-15.266909 15.328969-15.266909h125.88994c9.216 0 15.36 6.11297 15.36 15.266909v39.718787c0 9.122909-6.144 15.204848-15.36 15.204849h-125.88994c-3.072 0-6.144 0-9.216-3.009939-6.11297-3.072-6.11297-6.11297-6.112969-9.18497zM284.982303 356.600242v39.687758c0 9.153939-6.144 15.266909-15.36 15.266909H143.732364c-3.072 0-6.144 0-9.216-3.072-3.04097-3.04097-3.04097-6.081939-3.04097-9.153939V359.641212c0-9.153939 6.11297-15.266909 15.32897-15.266909h125.889939c6.144-3.04097 12.288 3.072 12.288 12.225939z m0 173.98691v39.718787c0 9.122909-6.144 15.235879-15.36 15.235879H143.732364c-3.072 0-6.144 0-9.216-3.04097-3.04097-3.072-3.04097-6.11297-3.04097-9.184969v-39.656727c0-9.18497 6.11297-15.266909 15.32897-15.26691h125.889939c6.144-3.072 12.288 3.04097 12.288 12.19491z m0-347.973819v39.656728c0 9.18497-6.144 15.266909-15.36 15.266909H143.732364c-3.072 0-6.144 0-9.216-3.04097-3.04097-3.04097-3.04097-6.11297-3.04097-9.153939V185.654303c0-9.153939 6.11297-15.266909 15.32897-15.266909h125.889939c6.144-3.04097 12.288 3.04097 12.288 12.225939z m-141.249939 506.724849H269.653333c9.216 0 15.36 6.081939 15.36 15.266909v39.656727c0 9.18497-6.144 15.266909-15.36 15.266909H143.732364c-3.072 0-6.144 0-9.216-3.040969-3.04097-3.04097-3.04097-6.11297-3.04097-9.15394v-39.718788c0-12.194909 6.11297-18.307879 12.25697-18.307878z m540.361697-222.859637c30.72-21.348848 64.48097-33.574788 104.385939-33.574787 101.313939 0 184.226909 82.416485 184.226909 183.171878 0 100.724364-82.91297 183.140848-184.226909 183.140849s-184.195879 82.416485-184.195879 183.171879c0 21.348848-18.432 36.615758-36.864 36.615757-18.40097 0-36.83297-18.307879-36.832969-36.615757 0-97.683394 55.233939-186.212848 138.146909-228.941576-39.90497-33.605818-64.449939-82.416485-64.44994-137.371152 0-24.420848 6.11297-45.800727 12.25697-67.149575 21.504-39.718788 46.04897-67.180606 67.55297-82.447516z m107.457939 256.434425c58.33697 0 107.457939-48.841697 107.457939-106.837334 0-58.026667-49.12097-106.837333-107.457939-106.837333-58.33697 0-107.457939 48.841697-107.457939 106.837333-3.072 61.036606 46.04897 106.837333 107.457939 106.837334z m199.555879 94.642424c39.936 45.769697 61.44 103.765333 58.336969 164.83297 0 21.348848-18.432 36.615758-36.832969 36.615757-18.432 0-36.83297-18.307879-36.83297-36.615757 0-42.759758-15.36-85.488485-43.008-116.022303-12.25697-15.235879-12.25697-39.656727 6.144-51.882667 12.288-15.266909 36.864-12.194909 52.19297 3.04097z" fill="#87c38f" p-id="5819"></path></svg>