<svg xmlns="http://www.w3.org/2000/svg" xmlns:xlink="http://www.w3.org/1999/xlink" width="80" height="80" viewBox="0 0 80 80">
    <defs>
        <clipPath id="clip-path">
            <rect id="矩形_34" data-name="矩形 34" width="44.599" height="44.658" fill="none"/>
        </clipPath>
    </defs>
    <g id="组_245" data-name="组 245" transform="translate(17.701 17.671)" clip-path="url(#clip-path)">
        <path id="路径_632" data-name="路径 632" d="M624.722,198.121H621V194.4a3.717,3.717,0,0,0-3.717-3.717H613.57v-3.717a12.354,12.354,0,1,0-14.82.024v3.717h-3.717a3.717,3.717,0,0,0-3.717,3.717v3.717H587.6a3.717,3.717,0,0,0-3.717,3.717v3.693a3.717,3.717,0,0,0,3.717,3.717h37.124a3.717,3.717,0,0,0,3.717-3.717v-3.717a3.717,3.717,0,0,0-3.717-3.717Zm0,0" transform="translate(-583.887 -164.672)" fill="#f6cf00"/>
    </g>
    <circle id="椭圆_9" data-name="椭圆 9" cx="40" cy="40" r="40" fill="#fef3b5" opacity="0.77"/>
</svg>
