<svg xmlns="http://www.w3.org/2000/svg" xmlns:xlink="http://www.w3.org/1999/xlink" width="76" height="76" viewBox="0 0 76 76">
    <defs>
        <clipPath id="clip-path">
            <rect id="SVGID" width="37.384" height="33.379" fill="none"/>
        </clipPath>
    </defs>
    <g id="组_39" data-name="组 39" transform="translate(-383 -590)">
        <circle id="椭圆_9" data-name="椭圆 9" cx="38" cy="38" r="38" transform="translate(383 590)" fill="#fff1e6"/>
        <g id="组_28" data-name="组 28" transform="translate(-106.928 471.31)">
            <g id="组_25" data-name="组 25" transform="translate(511 140)">
                <g id="组_24" data-name="组 24" transform="translate(0 0)" clip-path="url(#clip-path)">
                    <path id="路径_13" data-name="路径 13" d="M525.944,139.875a.737.737,0,0,1,.6.2l14.06,10.445a1.535,1.535,0,0,1,.4,1v3.414c0,.8-1,1.406-1.607.8L526.547,146.1a1.281,1.281,0,0,0-1.205,0l-12.855,9.641a1.072,1.072,0,0,1-1.607-1v-3.214a1.044,1.044,0,0,1,.4-.8l14.06-10.645a.737.737,0,0,1,.6-.2Zm0,0" transform="translate(-510.885 -139.88)" fill="#f87f20"/>
                </g>
            </g>
            <path id="路径_14" data-name="路径 14" d="M1054.8,168.99a.919.919,0,0,1,.8,1v4.218c0,.8-.8,1.205-1.205.8l-3.415-2.812a1.044,1.044,0,0,1-.4-.8v-1.607a.919.919,0,0,1,.8-1h3.414Zm0,0" transform="translate(-517.096 -27.589)" fill="#f87f20"/>
            <g id="组_27" data-name="组 27" transform="translate(511 140)">
                <g id="组_26" data-name="组 26" transform="translate(0 0)" clip-path="url(#clip-path)">
                    <path id="路径_15" data-name="路径 15" d="M586.581,332.83l11.248,8.034a1.1,1.1,0,0,1,.6,1v11.65a1.3,1.3,0,0,1-1.205,1.205H590.8a1.3,1.3,0,0,1-1.205-1.205v-8.034a1.343,1.343,0,0,0-1.205-1.406h-4.821a1.3,1.3,0,0,0-1.205,1.205v8.034a1.3,1.3,0,0,1-1.205,1.205H574.73a1.3,1.3,0,0,1-1.205-1.205V341.868a1.1,1.1,0,0,1,.6-1l11.248-8.034a1,1,0,0,1,1.2,0" transform="translate(-570.919 -324.6)" fill="#f87f20"/>
                    <path id="路径_16" data-name="路径 16" d="M1021.679,545.258l6.227,6.227a1.941,1.941,0,0,1,0,2.812l-6.227,6.227a1.942,1.942,0,0,1-2.812,0l-6.227-6.227a1.942,1.942,0,0,1,0-2.812l6.227-6.227a1.941,1.941,0,0,1,2.812,0Zm0,0" transform="translate(-991.154 -527.789)" fill="#f87f20"/>
                </g>
            </g>
            <rect id="矩形_5" data-name="矩形 5" width="9.24" height="2.009" transform="translate(535.5 164.299)" fill="#fff"/>
            <path id="路径_17" data-name="路径 17" d="M1099.181,716.129h-10.043v-2.812h10.043Zm-9.24-.8h8.436V714.12h-8.436Zm0,0" transform="translate(-554.04 -549.42)" fill="#fff"/>
            <rect id="矩形_6" data-name="矩形 6" width="1.808" height="9.039" transform="translate(539.316 160.683)" fill="#fff"/>
            <path id="路径_18" data-name="路径 18" d="M1183.307,631.8H1180.7V621.758h2.611Zm-1.808-.8h1v-8.436h-1Zm0,0" transform="translate(-641.782 -461.677)" fill="#fff"/>
        </g>
    </g>
</svg>
