<svg xmlns="http://www.w3.org/2000/svg" xmlns:xlink="http://www.w3.org/1999/xlink" width="76" height="76" viewBox="0 0 76 76">
    <defs>
        <clipPath id="clip-path">
            <rect id="SVGID" width="36.228" height="31.423" fill="none"/>
        </clipPath>
    </defs>
    <g id="组_40" data-name="组 40" transform="translate(-94 -755)">
        <circle id="椭圆_5" data-name="椭圆 5" cx="38" cy="38" r="38" transform="translate(94 755)" fill="#feecff"/>
        <g id="组_10" data-name="组 10" transform="translate(-457.629 570.289)">
            <g id="组_9" data-name="组 9" transform="translate(575 207)">
                <g id="组_8" data-name="组 8" transform="translate(0 0)" clip-path="url(#clip-path)">
                    <path id="路径_4" data-name="路径 4" d="M590.483,225.834h5.924a.4.4,0,0,0,.405-.405v-5.789a.407.407,0,0,0-.695-.289l-5.9,5.789a.405.405,0,0,0,.27.695Zm35.083,8.819a3.675,3.675,0,0,0-6.349-1.93l5.191,5.191a3.667,3.667,0,0,0,1.158-3.261Zm-4.535,1.37-2.586-2.586L607.87,244.012l-.83,6.021,6.021-.83,10.575-10.575Zm-11.154,12.293-1.254-1.254.27-1.795,2.856,2.856-.946.1Zm0,0" transform="translate(-589.383 -218.655)" fill="#bd59c3"/>
                </g>
            </g>
            <path id="路径_5" data-name="路径 5" d="M584.514,207.4v8.394a1.1,1.1,0,0,1-1.1,1.1H576.1a1.1,1.1,0,0,0-1.1,1.1v18.333a1.1,1.1,0,0,0,1.1,1.1h13.643a1.1,1.1,0,0,0,1.1-.965l.579-4.188.039-.367,6.619-6.619a1.124,1.124,0,0,0,.309-.791V208.519a1.1,1.1,0,0,0-1.1-1.1Zm1.312,19.877h-4.959a1.1,1.1,0,1,1,0-2.2h4.959a1.1,1.1,0,1,1,0,2.2ZM593,222.529h-12.1a1.121,1.121,0,0,1-1.119-.868,1.1,1.1,0,0,1,1.081-1.312H593a1.1,1.1,0,0,1,1.1,1.1,1.083,1.083,0,0,1-1.1,1.081Zm0,0" transform="translate(0 -0.381)" fill="#d869df"/>
        </g>
    </g>
</svg>
