<svg xmlns="http://www.w3.org/2000/svg" xmlns:xlink="http://www.w3.org/1999/xlink" width="76" height="76" viewBox="0 0 76 76">
    <defs>
        <clipPath id="clip-path">
            <rect id="SVGID" width="36.63" height="26.604" transform="translate(-183.734 29.239)" fill="none"/>
        </clipPath>
    </defs>
    <g id="组_41" data-name="组 41" transform="translate(-385 -755)">
        <circle id="椭圆_10" data-name="椭圆 10" cx="38" cy="38" r="38" transform="translate(385 755)" fill="#fff4e6"/>
        <g id="组_23" data-name="组 23" transform="translate(-1 478.407)">
            <g id="组_22" data-name="组 22" transform="translate(590 272)">
                <g id="组_21" data-name="组 21" transform="translate(0 0)" clip-path="url(#clip-path)">
                    <path id="路径_11" data-name="路径 11" d="M1095.073,568.985a5.933,5.933,0,1,0,5.931,5.931,5.938,5.938,0,0,0-5.931-5.931Zm-.82,7.449v-.027h-.115a1.709,1.709,0,1,1,.115.027Zm4.182,1.552-.1.081a.512.512,0,0,1-.651-.027l-1.369-1.356-.041-.047a.507.507,0,0,1-.108-.305.455.455,0,0,1,.142-.339.5.5,0,0,1,.684,0l1.369,1.383.048.047a.5.5,0,0,1,.027.563Zm0,0" transform="translate(-1248.145 -525.053)" fill="#f5aa4c"/>
                    <path id="路径_12" data-name="路径 12" d="M613.863,290.556a8.3,8.3,0,0,1,9.245-4.988v-9.875a2.574,2.574,0,0,0-2.576-2.576H593.456a2.574,2.574,0,0,0-2.576,2.576v18.049a2.569,2.569,0,0,0,2.576,2.576H613.64a8.285,8.285,0,0,1,.224-5.761Zm1.925-4.643h-7.964a.969.969,0,0,1,0-1.938h7.964a.969.969,0,0,1,0,1.938Zm-7.964-5.8h10.587a.969.969,0,1,1,0,1.938H607.824a.969.969,0,0,1,0-1.938Zm-7.842,3a2.148,2.148,0,0,1-2.013,2.135V290.1h-1.342v-4.853a2.139,2.139,0,0,1-2.013-2.135v-3.762h1.213v3.762h.807v-3.762h1.349v3.762h.807v-3.762H600v3.762Zm4.3,6.988h-1.342v-4.3H601.6v-4.3a2.653,2.653,0,0,1,2.684-2.149Zm3.545-.312a.969.969,0,0,1,0-1.938h4.988a.969.969,0,1,1,0,1.938Zm0,0" transform="translate(-774.62 -243.873)" fill="#f5aa4c"/>
                </g>
            </g>
        </g>
    </g>
</svg>
