<svg xmlns="http://www.w3.org/2000/svg" width="76" height="76" viewBox="0 0 76 76">
    <g id="组_33" data-name="组 33" transform="translate(-383 -154)">
        <circle id="椭圆_6" data-name="椭圆 6" cx="38" cy="38" r="38" transform="translate(383 154)" fill="#e6f1ff"/>
        <g id="组_14" data-name="组 14" transform="translate(-105.332 39.382)">
            <path id="路径_7" data-name="路径 7" d="M540.787,140.59h-6.2a4.083,4.083,0,0,1-4.121,3.7H522.2a4.086,4.086,0,0,1-4.121-3.7h-6.2A2.845,2.845,0,0,0,509,143.383v18.14a2.843,2.843,0,0,0,2.877,2.79h28.91a2.843,2.843,0,0,0,2.877-2.79v-18.14a2.845,2.845,0,0,0-2.877-2.793Zm-8.247,18.03h-5.262a1.128,1.128,0,0,1-.945-1.106,1.166,1.166,0,0,1,.99-1.108h5.156a1.1,1.1,0,0,1,.915,1.108,1.059,1.059,0,0,1-.854,1.106Zm6.478-4.113H527.5a1.109,1.109,0,1,1,0-2.214h11.52a1.108,1.108,0,1,1,0,2.216Zm0-3.794H527.5a1.108,1.108,0,1,1,0-2.214h11.52a1.107,1.107,0,1,1,0,2.214Zm-5.3-10.764a3.553,3.553,0,0,1-3.613,3.489h-7.218a3.492,3.492,0,1,1-.012-6.98,3.613,3.613,0,0,1,7.22,0h.008a3.553,3.553,0,0,1,3.613,3.489Zm-11.866,18.215-.378,1.448a.324.324,0,0,1-.557.124l-3-3.471-2.881,3.346a.326.326,0,0,1-.452.035.312.312,0,0,1-.106-.167l-.346-1.425a.317.317,0,0,0-.232-.23l-1.511-.376a.313.313,0,0,1-.169-.5l2.661-3.129a4.028,4.028,0,0,1-.577-2.06,3.845,3.845,0,1,1,6.959,2.293l2.515,2.981a.307.307,0,0,1-.043.441.325.325,0,0,1-.118.059l-1.535.409a.317.317,0,0,0-.224.224Zm4.644-23.9a2.056,2.056,0,1,0,2.086,2.056,2.071,2.071,0,0,0-2.086-2.056Zm0,0" transform="translate(0 1)" fill="#65a9ff"/>
        </g>
    </g>
</svg>
