<svg xmlns="http://www.w3.org/2000/svg" xmlns:xlink="http://www.w3.org/1999/xlink" width="76" height="76" viewBox="0 0 76 76">
    <defs>
        <clipPath id="clip-path">
            <rect id="矩形_7" data-name="矩形 7" width="32.498" height="33.337" fill="none"/>
        </clipPath>
    </defs>
    <g id="组_42" data-name="组 42" transform="translate(-711 -154)">
        <circle id="椭圆_11" data-name="椭圆 11" cx="38" cy="38" r="38" transform="translate(711 154)" fill="#ffe6f2"/>
        <g id="组_31" data-name="组 31" transform="translate(123.751 -2.006)">
            <g id="组_30" data-name="组 30" transform="translate(609 180)">
                <g id="组_29" data-name="组 29" transform="translate(0)" clip-path="url(#clip-path)">
                    <path id="路径_19" data-name="路径 19" d="M613.047,196.668h-2.5V182.5a2.545,2.545,0,0,1,.833-1.875,1.9,1.9,0,0,1,1.667-.625h24.169a1.879,1.879,0,0,1,1.042.208,3.682,3.682,0,0,1,1.458,1.458,1.562,1.562,0,0,1,.208,1.042v13.96Zm27.086,2.084c.417,0,.625,0,.833.208s.417.417.417.625a1.58,1.58,0,0,1-.417.833c0,.417-.417.417-.833.417h-30a1.561,1.561,0,0,1-1.042-.208,1.253,1.253,0,0,1-.208-.833,1.579,1.579,0,0,1,.417-.833c.208,0,.417-.208.833-.208Zm-16.877,4.167h4.167v8.334a1.892,1.892,0,0,1-.625,1.458,2.771,2.771,0,0,1-1.667.625,1.892,1.892,0,0,1-1.458-.625,1.758,1.758,0,0,1-.417-1.458Zm0,0" transform="translate(-608.886 -180)" fill="#e7619f"/>
                </g>
            </g>
        </g>
    </g>
</svg>
