<svg xmlns="http://www.w3.org/2000/svg" width="76" height="76" viewBox="0 0 76 76">
    <g id="组_34" data-name="组 34" transform="translate(-94 -310)">
        <circle id="椭圆_2" data-name="椭圆 2" cx="38" cy="38" r="38" transform="translate(94 310)" fill="#ecfbff"/>
        <g id="组_4" data-name="组 4" transform="translate(-385.308 152.222)">
            <path id="路径_2" data-name="路径 2" d="M531.149,182H501.923A2.923,2.923,0,0,0,499,184.923v.974h35.072v-.974A2.923,2.923,0,0,0,531.149,182ZM499,206.355a2.923,2.923,0,0,0,2.923,2.923h29.226a2.924,2.924,0,0,0,2.923-2.923v-18.51H499Zm21.433-14.126a.489.489,0,0,1,.487-.487h8.768a.489.489,0,0,1,.487.487v.974a.488.488,0,0,1-.487.487H520.92a.489.489,0,0,1-.487-.487Zm0,3.9a.489.489,0,0,1,.487-.487h8.768a.489.489,0,0,1,.487.487v.974a.489.489,0,0,1-.487.487H520.92a.489.489,0,0,1-.487-.487Zm0,3.9a.489.489,0,0,1,.487-.487h8.768a.488.488,0,0,1,.487.487V201a.489.489,0,0,1-.487.487H520.92a.489.489,0,0,1-.487-.487Zm-10.716-8.281a3.9,3.9,0,1,1-3.9,3.9,3.9,3.9,0,0,1,3.9-3.9Zm-6.631,12.433a3.9,3.9,0,0,1,3.708-2.691h.5a6.271,6.271,0,0,0,4.847,0h.5a3.9,3.9,0,0,1,3.708,2.691.959.959,0,0,1-.95,1.206H504.035a.961.961,0,0,1-.95-1.206Zm0,0" fill="#44d4fa"/>
        </g>
    </g>
</svg>
