<svg xmlns="http://www.w3.org/2000/svg" xmlns:xlink="http://www.w3.org/1999/xlink" width="76" height="76" viewBox="0 0 76 76">
    <defs>
        <clipPath id="clip-path">
            <rect id="SVGID" width="34.569" height="32.389" fill="none"/>
        </clipPath>
    </defs>
    <g id="组_35" data-name="组 35" transform="translate(-383 -310)">
        <circle id="椭圆_7" data-name="椭圆 7" cx="38" cy="38" r="38" transform="translate(383 310)" fill="#f2ffe6"/>
        <g id="组_17" data-name="组 17" transform="translate(-127.497 192.67)">
            <g id="组_16" data-name="组 16" transform="translate(532 138.271)">
                <g id="组_15" data-name="组 15" transform="translate(0)" clip-path="url(#clip-path)">
                    <path id="路径_8" data-name="路径 8" d="M555.272,139.793a2.38,2.38,0,0,1,1.758.587,2.774,2.774,0,0,1,.664,1.743l.017.251v23.888a5.513,5.513,0,0,0,1.135,3.572l.25.275-20.791.025h-.468a4.539,4.539,0,0,1-4.494-4.586l-.01-.391v-16.4h18.537a1.021,1.021,0,0,0,.986-.809l.022-.2v-4.387c0-2.371.8-3.567,2.395-3.567Zm8.469,20.016a.666.666,0,0,1,.663.5l.019.176v5.937c0,.141-.025.353-.049.589l-.009.08-.013.083v.047a3.876,3.876,0,0,1-.515,1.242,2.113,2.113,0,0,1-1.763.8c-1.985,0-2.311-1.872-2.343-2.836v-6.619Zm-11.4-6.8a1.225,1.225,0,0,0-1.726.157l-6.045,7.246-3.713-3.274-.179-.129a1.225,1.225,0,0,0-1.443,1.967l4.663,4.11.182.132a1.224,1.224,0,0,0,1.57-.267l6.846-8.22.129-.181a1.225,1.225,0,0,0-.284-1.543Zm1.76-15.239a3.66,3.66,0,0,1,.729.074c-2.365.2-3.8,2.051-3.932,5.051l-.011.487v3.377h-20.32a.682.682,0,0,1-.661-.416l-.022-.1v-5.119a3.482,3.482,0,0,1,3.291-3.336l.347-.019Zm0,0" transform="translate(-529.885 -137.783)" fill="#adda84"/>
                </g>
            </g>
        </g>
    </g>
</svg>
