<svg xmlns="http://www.w3.org/2000/svg" xmlns:xlink="http://www.w3.org/1999/xlink" width="76" height="76" viewBox="0 0 76 76">
    <defs>
        <clipPath id="clip-path">
            <rect id="矩形_4" data-name="矩形 4" width="28.758" height="33.579" fill="none"/>
        </clipPath>
    </defs>
    <g id="组_36" data-name="组 36" transform="translate(-94 -450)">
        <circle id="椭圆_3" data-name="椭圆 3" cx="38" cy="38" r="38" transform="translate(94 450)" fill="#edecff"/>
        <g id="组_7" data-name="组 7" transform="translate(-490.379 341.21)">
            <g id="组_6" data-name="组 6" transform="translate(608 130)">
                <g id="组_5" data-name="组 5" transform="translate(0 0)" clip-path="url(#clip-path)">
                    <path id="路径_3" data-name="路径 3" d="M631.464,130.52a5.072,5.072,0,0,1,5.145,5v23.524a5.071,5.071,0,0,1-5.145,5H613.027a5.072,5.072,0,0,1-5.147-5V135.517a5.058,5.058,0,0,1,5.145-5Zm-.706,26.335H613.865l-.22.019a1.175,1.175,0,0,0-.993,1.137,1.242,1.242,0,0,0,1.214,1.238h16.893l.218-.022a1.252,1.252,0,0,0,.993-1.216,1.216,1.216,0,0,0-1.211-1.156Zm-2.528-4.75H616.168l-.22.019a1.176,1.176,0,0,0,.22,2.337H628.23l.22-.019a1.176,1.176,0,0,0-.22-2.337Zm-6-16.8-2.2,4.733-4.968.749,3.586,3.68-.024.18-.8,5.023,4.434-2.461,4.429,2.461-.845-5.2,3.586-3.68-4.965-.749-2.227-4.733Zm0,0" transform="translate(-607.885 -130.499)" fill="#8079fa"/>
                </g>
            </g>
        </g>
    </g>
</svg>
