<svg xmlns="http://www.w3.org/2000/svg" xmlns:xlink="http://www.w3.org/1999/xlink" width="76" height="76" viewBox="0 0 76 76">
    <defs>
        <clipPath id="clip-path">
            <rect id="SVGID" width="35.855" height="28.742" fill="none"/>
        </clipPath>
    </defs>
    <g id="组_37" data-name="组 37" transform="translate(-383 -451)">
        <circle id="椭圆_8" data-name="椭圆 8" cx="38" cy="38" r="38" transform="translate(383 451)" fill="#fffce6"/>
        <g id="组_20" data-name="组 20" transform="translate(-44.928 344.629)">
            <g id="组_19" data-name="组 19" transform="translate(448 130)">
                <g id="组_18" data-name="组 18" transform="translate(0 0)" clip-path="url(#clip-path)">
                    <path id="路径_9" data-name="路径 9" d="M481.9,130.52H449.72a1.955,1.955,0,0,0-1.84,2.051v24.586a1.954,1.954,0,0,0,1.84,2.051H481.9a1.955,1.955,0,0,0,1.84-2.051V132.571a1.954,1.954,0,0,0-1.84-2.051Zm-16.09,5.02a6.51,6.51,0,1,1-6.565,6.51,6.536,6.536,0,0,1,6.565-6.51Zm5.749,19.092h-11.5a.723.723,0,1,1,0-1.434h11.5a.723.723,0,1,1,0,1.434Zm0,0" transform="translate(-447.884 -130.502)" fill="#ecda56"/>
                </g>
            </g>
            <path id="路径_10" data-name="路径 10" d="M838.87,338.964l-.424,2.521a.482.482,0,0,0,.409.559.466.466,0,0,0,.317-.061l2.133-1.178,2.132,1.178a.629.629,0,0,0,.227.06.49.49,0,0,0,.484-.5.539.539,0,0,0-.03-.151l-.393-2.446,1.739-1.782a.5.5,0,0,0,.121-.5.493.493,0,0,0-.394-.332l-2.36-.332-1.058-2.279a.506.506,0,0,0-.65-.242.585.585,0,0,0-.242.227l-1.074,2.279-2.39.362a.492.492,0,0,0-.393.332.472.472,0,0,0,.12.5l1.724,1.781Zm0,0" transform="translate(-375.376 -196.319)" fill="#ecda56"/>
        </g>
    </g>
</svg>
