<svg xmlns="http://www.w3.org/2000/svg" xmlns:xlink="http://www.w3.org/1999/xlink" width="76" height="76" viewBox="0 0 76 76">
    <defs>
        <clipPath id="clip-path">
            <rect id="SVGID" width="29.259" height="33.302" fill="none"/>
        </clipPath>
    </defs>
    <g id="组_38" data-name="组 38" transform="translate(-94 -585)">
        <circle id="椭圆_4" data-name="椭圆 4" cx="38" cy="38" r="38" transform="translate(94 585)" fill="#e2faf3"/>
        <g id="组_13" data-name="组 13" transform="translate(-484.629 473.349)">
            <g id="组_12" data-name="组 12" transform="translate(602 133)">
                <g id="组_11" data-name="组 11" transform="translate(0 0)" clip-path="url(#clip-path)">
                    <path id="路径_6" data-name="路径 6" d="M631.107,162.041V136.467a3.327,3.327,0,0,0-3.327-3.327H605.207a3.327,3.327,0,0,0-3.327,3.327v26.6a3.327,3.327,0,0,0,3.327,3.327h2.163v.007h19.38v-.007h1.029a3.327,3.327,0,0,0,3.327-3.327Zm-6.182-13.29a1.291,1.291,0,0,1,0,2.582h-16.9a1.291,1.291,0,1,1,0-2.582Zm-16.9,9.762a1.291,1.291,0,1,1,0-2.582h16.9a1.291,1.291,0,0,1,0,2.582Zm10.889-15.65a1.252,1.252,0,0,1-1.252,1.252h-9.677a1.252,1.252,0,1,1,0-2.5h9.677a1.252,1.252,0,0,1,1.252,1.252Zm0,0" transform="translate(-601.885 -133.134)" fill="#4abc9b"/>
                </g>
            </g>
        </g>
    </g>
</svg>
